<?xml version="1.0" standalone="no"?><!DOCTYPE svg PUBLIC "-//W3C//DTD SVG 1.1//EN" "http://www.w3.org/Graphics/SVG/1.1/DTD/svg11.dtd"><svg t="1508318917767" class="icon" style="" viewBox="0 0 1024 1024" version="1.1" xmlns="http://www.w3.org/2000/svg" p-id="995" xmlns:xlink="http://www.w3.org/1999/xlink" width="200" height="200"><defs><style type="text/css"></style></defs><path d="M825.6 428.373333A319.573333 319.573333 0 0 0 512 170.666667a319.146667 319.146667 0 0 0-283.306667 172.373333A255.829333 255.829333 0 0 0 0 597.333333c0 141.226667 114.773333 256 256 256h554.666667c117.76 0 213.333333-95.573333 213.333333-213.333333 0-112.64-87.466667-203.946667-198.4-211.626667zM810.666667 768H256c-94.293333 0-170.666667-76.373333-170.666667-170.666667s76.373333-170.666667 170.666667-170.666666 170.666667 76.373333 170.666667 170.666666h85.333333c0-117.76-79.36-216.746667-187.733333-246.613333C367.36 293.546667 435.2 256 512 256c129.28 0 234.666667 105.386667 234.666667 234.666667v21.333333H810.666667c70.4 0 128 57.6 128 128s-57.6 128-128 128z" p-id="996"></path></svg>